<?xml version="1.0"?>
<svg xmlns:rdf="http://www.w3.org/1999/02/22-rdf-syntax-ns#" xmlns="http://www.w3.org/2000/svg" xmlns:cc="http://creativecommons.org/ns#" xmlns:dc="http://purl.org/dc/elements/1.1/" xmlns:svg="http://www.w3.org/2000/svg" id="svg2" viewBox="0 0 1340.2 158.78" version="1.1">
  <g id="layer1" transform="translate(-10.292 -309.6)">
    <path id="path2911" d="m974.94 468.37c-35.327-1.5829-71.283-6.9024-106.57-11.138 6.3947-8.3414-38.989-1.7728-52.481-12.611-21.618-7.2252-42.974 3.8864-59.571-6.2519-10.708-35.687-52.399-19.926-78.879-21.25-38.346-7.1588-78.324 4.6066-111.68 24-5.8669 16.41-60.418 20.486-88.949 15.847-92.97-1.5931-188.54 0.83971-279.91-2.0974-28.039 1.4096-49.924-0.62958-77.957-0.27081-31.458-9.8165-96.303 16.385-108.53-14.037-2.6238-23.512 42.367-6.7749 36.917-43.217 11.484-33.371-63.4-42.107-22.945-62.226 41.575-2.2859 86.395 0.32761 126.42 0 21.284 0.19016 50.833-0.64027 76.359 0.81821 102.77 0.72413 208.01-0.80648 311.65 1.168 43.698 23.678 94.755 31.402 144.06 28.014 16.033-0.0997 34.769 0.0157 50.567 0.10888 29.975-6.0152 39.225-37.724 75.433-23.109 24.718-13.977 50.086-13.776 77.714-19.73 21.425-0.69346 34.823-4.0472 47.026-5.9555 25.59-0.96927 55.955-7.4126 77.742-4.4306 60.21-4.2606 120.48-2.4359 180.02 2.1097 23.373 9.2624 48.332 7.7989 74.417 7.7809 15.011 13.107 45.255 6.1374 58.603 6.4617 36.737 8.2481 25.853 64.836 19.515 92.02-2.0789 39.316-53.349 16.252-69.053 19.994-7.2826 5.3057-46.502-0.28364-70.985 8.25-40.349 8.7611-85.544 15.476-128.41 18.644-33.004 0.87057-68.221 1.1196-100.53 1.1076zm-12.397-5.8189c-1.1783-9.2557-5.3275 5.2312 0 0zm138.34 0.56722c-2.4663-3.5623-1.2094 3.6561 0 0zm-87-1.441c-2.8932-7.2354-5.1831 5.3826 0 0zm-18.184-2.3005c-6.5732-12.531-4.5005 12.886 0 0zm43.684 1.7414c-2.5632-3.7039-3.8442 3.5852 0 0zm-50.5-6.559c-3.0916-5.4058-1.7769 6.7871 0 0zm27.75-0.0245c-5.1015-0.59542-0.4555 5.1207 0 0zm-99.321-2.5312c-6.7628 0.88572 2.8655 6.9546 0 0zm182.82-2.4159c-1.8122-9.3932-5.4066 12.807 0 0zm-92.251 2.0306c-3.8324-5.3812-3.8324 5.3812 0 0zm46.5 0.5c-2.4663-3.5623-1.2094 3.6561 0 0zm89.138-0.5c12.824-2.1391 3.8531-9.2922-0.075-14.986-2.2962-15.508-12.702 26.248 0.075 14.986zm-1069.5-1.56c-3.0916-5.4058-1.7769 6.7871 0 0zm886-2.032c6.4753-0.66909 23.601-2.7311 41.286-2.6692 22.041 2.7809 46.428-1.4295 72.884-0.26655 12.352 3.8095 41.998-1.991 56.687-8.9732-30.853-1.9191-66.649 5.354-98.972 3.1419-41.789 0.96204-87.078-3.9946-126.58-2.2345-18.223 7.5324-96.724-19.834-72.939 1.1313 25.827 3.0765 56.1 5.063 74.104 5.9614 16.797 1.7432 49.055 1.0856 53.528 3.9089zm-797 1.0911c22.188-5.3646 54.16-3.2729 80.81-1.8087 38.296 2.7259 77.891-2.638 113.57 0.69553 44.131-1.3706 85.833 2.8906 128.5-0.0828 13.923-3.7286 42.397 7.1208 46.773-6.2741-21.096-2.9591-36.585-1.5373-57.707-0.52996-12.333-2.0236-43.396-2.1802-67.941-1.1224-28.715 0.45871-48.852 0.31329-77.686-0.80922-27.063 2.4826-56.221-0.35831-86.167-0.1218-50.131-0.43556-103.23-0.21485-151.65-1.9465-17.161 0.0503-39.709 0.19255-56 0-6.0591 12.985 62.156 5.8347 82.746 9.8066 12.435-1.6152 39.857-2.2683 44.754 2.1934zm954.75 1.3697c9.726-16.262-15.628 1.815 0 0zm51.612-0.86971c11.762-3.0926-4.6669-12.547 0 0zm-106.36-0.39301c-3.4708-5.0661-3.1557 3.2058 0 0zm11.782-0.26149c-4.9869-10.865-4.2103 6.0976 0 0zm3.989-2.658c-3.3621-4.4497-3.6337 5.246 0 0zm-532.77-0.1875c27.429-24.796 66.201-36.785 100.5-42 28.811 0.6184 57.453-0.0201 86.5 0 19.331 2.9244 41.179 28.763 33.699-12.466 7.0912-44.938-47.323-6.9113-71.216-18.469-38.037-0.0331-72.296-0.93677-107.98-8.0728-17.828-8.2983-69.549-26.95-28.213 0.0264 13.734 15.046 60.405 11.675 58.141 31.588-24.679 13.103-61.974 20.915-76.405 44.183-0.14251 1.6008 1.6335 8.9457 4.9718 5.2107zm616 0c10.418-10.001-8.7259 1.8712 0 0zm23 0c-2.5549-3.5874-2.5549 3.5874 0 0zm20-2.5c-2.032-5.2298-2.032 5.2298 0 0zm-13.638-1c-2.3777-5.3997-3.5052 5.2925 0 0zm-365.36-2.5c-2.5549-3.5874-2.5549 3.5874 0 0zm394.35-2.7672c-7.0304-8.0541-0.352 9.5056 0 0zm-725.16 2.0841c-4.3834-1.4324-0.43359 1.9249 0 0zm685.82-2.3225c31.166 6.8646 50.775-36.458 7.7999-22.208-21.182 3.3279-42.399 2.2076-58.256 5.9082-22.298 6.5355-52.332-6.4144-58.188 4.4226-18.24 7.6987-91.255-8.4045-81.78 9.6601 26.243-5.9576 64.931 1.5037 95.507-2.5896 30.454-0.69893 61.985-5.9406 91.715-7.2956 18.241-4.3453 43.91-1.4248 9.5802 4.0994-22.815-4.789-56.531 14.664-11.364 8.9876l4.9864-0.98487v-0.00002zm-165.25-8.6567c5.5068-1.6231 0.9994 1.7502 0 0zm290.61 8.1623c-0.1583-5.0892-6.1916 5.2414 0 0zm-222.17-0.18311c-4.3835-1.4324-0.4336 1.9249 0 0zm128.81-2.3169c-2.4663-3.5623-1.2094 3.6561 0 0zm84.25-0.41667c-2.415-4.6608-3.2414 4.3691 0 0zm-43.834-1.2265c1.1929-6.4232-5.9656 5.7909 0 0zm-297.24-0.25799c26.075-4.8525-41.829-3.9549 0-0.00004v0.00004zm313.21-2.776c-1.2012-21.861-17.039 4.0636-0.4472 3.1464l0.4472-3.1464v0.00005zm60.832 1.1055c-4.3518-17.486-53.677 8.5093 0 0zm-1017.2 0.57161c30.392 0.91888 64.726-0.89314 96.961 0.59083 30.035 0.0674 68.64-0.41078 93.702-0.84083 21.507 4.7489 47.844-3.9016 64.322-21-32.084-7.2623-75.404 3.1543-101.45-9.2809 21.182 1.2957 53.635 0.0811 79.924 1.7849 21.217 8.9774 64.08-6.6356 18.193-6.623-62.266 1.2656-129.21 0.40484-188.65-0.63112-43.318 3.9677 44.166 5.7682 58.121 4.9392 30.829-3.6554 37.323 9.902 2.7535 5.8309-37.133 0.62093-78.782-2.5543-111.87-1.77-48.895-3.1036 64.418-6.4396 11-10-46.771 0.52544-95.355 0.0518-142.8-1.8877-24.121 1.328-54.024 1.1764-75.263-1.1123-19.141 11.175-62.388-12.881-60.491 0.51281 26.96 10.306 73.197 1.5488 106.44 5.1479 31.21 0.64967 55.584 1.7604 87.607 0.60853 15.397 0.24985 79.316 3.4444 34.784 5.9794-58.257-0.62103-118.28-0.82955-174.28-3.2486-13.43-4.2297-80.244 2.8382-33.699 5.9701 20.316 1.2102 69.01-1.0312 66.782 5.0299-29.05-0.6789-64.11-5.5929-90.506 1.4452-25.149 27.142 26.197 12.999 39.984 16.71 72.751 0.6748 145.95 0.11094 218.44 1.8445zm158.5-13.745c-17.396-0.56594-95.107-2.1451-36.95-4.3506 14.424 3.0957 83.361-0.95571 67.157 4.8203-10.067-0.24776-20.138-0.34661-30.207-0.4697zm-80.5-1.2375c-21.448-1.2375-74.475-2.5881-24.581-3.8517 10.543-0.0505 61.681 1.311 24.581 3.8517zm-118.46-1.7968c-20.886-1.9538-40.122-2.1301-59.6-0.2204-16.674-3.4131-89.587-3.2639-32.324-5.5568 29.756 2.3091 57.055 0.24966 85.025 2.5033 21.194-1.0257 100.03 2.6254 40.511 3.5894-11.204 0.0294-22.41-0.0943-33.612-0.31549zm661.2 15.819c-1.4126-13.155-52.417-2.1173-70.743-7.8775-12.919-17.34 25.78-0.66127 36.929-5.162 34.234 13.213-11.37-26.775 16.566-6.2152 8.777 27.647 28.066-3.7409 10.989 1.0201-22.002-6.6969 28.097-8.8659 17.528 5.697 15.667 8.2685 18.466 3.4157 40.489 1.4982-14.296-16.909 32.315-7.789 50-12 33.056 2.4746-14.272 7.7832-32.482 4.4756-17.235 15.567 30.114 14.63 24.324 11.975 13.105-4.4287 64.392-2.3072 28.657-15.039 17.237-0.71126 28.543 15.278 47.359 7.8379 32.954-1.7614 70.417-3.7594 106.17-6.2896 31.046-13.39-31.96-10.033-43.524-7.4608-37.031 7.2339-7.7208-10.198 13.029-6.299 33.582 3.6391 51.455 0.9347 39.852-36.947-5.715-30.135-40.539-4.7154-58.151-12.504 12.607-5.9421 52.262-1.7214 49.092-10.301-30.064-6.7011-47.573-6.806-73.084-3.3652-38.834 2.5826-78.433 2.438-117.74 5.0595 33.161-8.8261 68.549-2.2724 100.32-8.5452-20.772-7.3047-49.755-2.6405-69.791-0.5449-27.081-6.2952-45.21 13.811-59.007 9.3868-16.681-14.082 45.858-6.8653 61.458-12.44 20.277-11.702-47.709-5.5753-42.957-6.4836-12.66 4.6189-43.036-1.5073-53.087 1.696-21.305 10.081-40.232-1.3876-56.524 11.038-19.861 0.98251-65.974 0.80443-74.424 20.7 34.86-12.598-16.969 11.572 19.457 5.9677 17.705-1.3265-40.193 17.044-14.45 16.523 1.771-1.5077 14.823 19.072 2 18.585 16.506 8.6185 15.964 9.3588 0.45653 14.837 27.682 3.2435 31.283 20.17-0.39751 9.137 1.6691 15.412 68.792 9.2538 94.441 13.945l4.126-0.25528 3.1168-1.65v0.00006zm28.257-16.86c-22.879-9.0784 30.824-0.87677 0 0zm118.19-4.0072c-5.9453-11.266 23.08 2.8012 0 0zm-202.47-2.98c3.809-11.131 33.493 6.4364 2.9514 1.4744l-2.95-1.47zm220.95 0.24695c11.552-12.455 24.224 8.6105 0 0zm22.143-0.28693c-0.5762-13.108 34.541 5.5378 2.8605 1.4045l-2.8605-1.4045zm-267.08-2.5167c7.2868-15.789 25.759 14.298 0 0zm124.08-1.431c-37.324-16.089 38.557-0.83975 0 0zm-23.75-1.1836c-38.795-11.984 36.359-3.9159 0 0zm-2.7103-4c-2.2817-6.9636-0.70883 6.9604 0 0zm44.71 2.0521c9.2844-9.1724 27.135 5.0161 0 0zm74.529-1.4427c-5.6054-17.318 29.518 11.758 0 0zm-139.53 0.39063c-43.113-0.68151 12.664-10.605 4 1l-4-1zm87-0.89301c10.926-7.9727 33.167 6.8703 1.6477 1.5983l-1.6477-1.5983zm31.5 0.89301c-8.4254-10.573 19.458-0.99245 3.691 0.98466l-3.691-0.98469v0.00003zm41.5-1.4205c12.128-16.929 12.286 14.325 0 0zm-194.25-0.26865c-20.451-23.553 32.279 5.7104 0 0zm-11.751-1.0267c-46.921-5.5459 6.0498-15.645 0 0zm233.45-2.3713c2.369-8.6539 9.5295 5.4997 0 0zm17.554-0.91287c-11.543-6.6746 17.978-6.3471 1.4457 0.8565l-1.4457-0.8565zm-282.5-0.97738c-19.594-10.065 23.515-2.0981 0 0zm138.5-5.0226c-23.67-9.3146 31.74-1.3423 0 0zm19-1.7289c-3.3736-15.692 39.7 7.0146 0 0zm51.75-0.0815c-13.788-6.1879 26.377-1.1219 0 0zm106.01 0.14601c18.125-7.0027 28.081 4.5232 0 0zm21.244-0.58915c20.962-8.8467 42.674 4.8277 0 0zm-254.52-1.34c11.164-11.534 22.137 7.3985 0 0zm25.896 0.59024c-4.8049-9.6444 29.049 2.4425 1.382 1l-1.382-1zm76.167 0.33333c6.1962-7.7872 20.878 4.9031 0 0zm-128.92-2.0227c-26.321-14.194 32.569 4.3623 0 0zm14.25-0.81067c3.2735-5.1581 4.7306 5.7206 0 0zm159.64 0c10.386-5.607 12.214 5.2099 0 0zm19.572-1.038c8.3459-6.0875 16.025 4.1654 0 0zm-258.05-1.3404c-1.7192-15.52 21.983 3.8748 0 0zm20.256 0.0117c-13.884-16.92 29.906 2.0227 0 0zm23.043 0.159c-20.008-15.496 28.311 4.0219 0 0zm236.54-1.7923c1.6275-9.1566 12.035 2.9682 0 0zm26.245-2.75c10.821-5.7102 8.2814 4.2578 0 0zm15.755-1.4789c16.504-10.492 34.285 6.1821 0 0zm25-1.7711c9.6838-6.2605 17.586 6.1394 0 0zm-232.31-2.1395c5.2096-6.5287 11.818 1.1544 0 0zm17.944-0.86052c16.711-9.0035 18.132 4.9297 0 0zm98.116 0.25c2.5613-11.104 13.683 5.6621 0 0zm-146.03-0.45c-1.3938-9.5029 26.64 3.0352 0 0zm77.944-1.7972c12.136-7.886 13.907 6.6686 0 0zm84.837 0.45955c13.521-8.1008 20.931 5.563 0 0zm24.192 0.37378c-1.6508-6.2126 7.4575 2.5466 0 0zm-89.028-1.8333c12.73-11.296 14.615 4.9174 0 0zm21.874-0.25c8.1726-10.251 16.366 9.1612 0 0zm95.845-1.75c12.53-5.1848-1.5057 6.4827 0 0zm-286.6-2.1644c4.7831-4.5971 19.133 2.5213 0 0zm23.494-0.059c-11.915-5.8288 19.328 2.1883 0 0zm277.36-0.70554c25.623-8.9744 22.208 8.2309 0 0zm22.389-0.0711c9.6714-5.3445 11.313 6.2243 0 0zm-201.55-3.4243c-5.121-9.7407 15.807 3.1538 0 0zm14.12-1.9578c8.2788-10.772 25.637 4.543 0 0zm26.177 0.22796c0.5044-9.642 25.442 2.6986 0 0zm54.5-2.0764c-4.5141-6.5774 8.7751 0.31024 0 0zm-138.75-1.0544c-19.883-0.77386-50.617-6.1742-9.2006-3.1647 17.818-2.7786 43.629 4.677 9.2006 3.1647zm149.93-0.32512c7.864-10.904 21.59 3.9363 0 0zm45.318-1.5505c-1.0475-12.016 50.274-0.95251 9.941-0.4277-5.2885-3.9325-5.3107 6.7706-9.941 0.4277zm-19.672-0.33936c-16.357-7.8916 38.537 1.0233 0 0zm-263.87-1.1308c19.287-7.5878 64.519-11.089 20.79-0.90438-5.6649-0.89707-16.752 3.6519-20.79 0.90438zm44.36-9.7555c4.101-5.7976 12.446 4.3656 0 0zm119.93-0.11369c8.439-3.7184 6.1589 3.7849 0 0zm-104-1.9452c23.799-5.6946 53.585 0.42924 11.39 0.7484l-7.7302 0.1077-3.6602-0.8561zm43.25-2.7871c13.84-6.0493 32.549 2.138 6.75 0.54384l-6.75-0.54384zm25.888-0.76779c4.8277-5.5517 2.4902 6.1297 0 0zm6.3616-9.5c5.4655-3.6609 3.7205 3.7552 0 0zm23.271-1.6042c3.9598-2.1015 0.9346 2.2533 0 0zm-24.461 108.85c-3.4023-6.0466-3.163 6.1437 0 0zm236.97-2c-7.6122-5.1069 0.2441 8.0542 0 0zm72.223 2.857c-3.0624-5.1272-2.7355 3.0367 0 0zm-61.388-1.8723c8.4718-20.893 12.649-25.633 3.7192-27.877 13.906-28.825 37.551 15.489 36.782-5.4822 32.887-13.257-71.546-8.8002-10.363-13.605 36.038 15.176 13.623-50.633-1.2502-50.271-18.145-0.64354-48.382-6.3945-33.788 19.884 14.226 19.886-5.2499 62.718 4.9004 77.351zm19.138-56.924c-1.2612-9.9837 26.353 4.5506 0 0zm-11.75 56.301c24.095-6.8369-9.6381-6.2722 0 0.00001v-0.00001zm-15.374-3.1443c-8.6722-6.1196 3.5452 9.4148 0 0zm59.374 0.91641c-6.6018-1.6921-6.6145 2.9447 0 0zm-514.46-2.3126c-5.1134-2.3694 0.41489 6.1438 0 0zm31.823-1.0494c6.4866-16.953-12.57 11.611 0 0zm171.63 2.9786c-2.4662-3.5623-1.2094 3.6561 0 0zm284.82-2c-6.8012-26.063-10.97 8.85 0 0zm-479.67-1.7615c-10.651-33.237 61.064-9.1777 26.058-25.501-39.929 2.9601-10.351-11.05 9.5406-8.9208 7.2025-16.496-9.2229-52.857-39.997-37.391-1.4825 17.679 1.8807 66.658 4.3983 71.813zm11.872-42.416c5.3527-4.194 31.263-0.29387 0 0zm429.98 45.236c-1.8976-5.0354-3.1061 3.6266 0 0zm78.541-0.99249c-6.8589-4.5466 0.7554 4.4994 0 0zm-334.04-1.0665c-2.4662-3.5623-1.2094 3.6561 0 0zm314.5-0.059c-2.8802-1.9056-2.3337 3.4348 0 0zm8.5911-0.52095c-4.8861-15.698-7.9419 7.5964 0 0zm-24.591-0.42005c-2.4663-3.5623-1.2094 3.6561 0 0zm28.818-1.5c-6.2569-8.4762 1.132 8.3456 0 0zm-52.318-0.5c-2.4663-3.5623-1.2094 3.6561 0 0zm98.089-0.73217c-14.008-16.59-53.773-4.2402-11.619 1.5342l7.3901-0.39136 4.2289-1.1429v0.00002zm-221.14-2.3532c-4.5202-1.9024-0.3199 4.8938 0 0zm185.55 0.20785c-4.1224-8.2013-13.254 4.1138 0 0zm-33-3.89c8.3835 1.064 8.9123-4.0612-0.3918-9.4149-9.6264-9.9896-1.3913 14.369 0.3918 9.4149zm-453.12-1.9792c-2.2533 0.93468 2.1015 3.9596 0 0zm526.26-3.17c-3.8567-23.684 13.536-44.476-25.788-38.098-37.512-8.7489-22.357 38.196 9.6515 24.062 33.453 9.3479-51.336-2.2706-30.347 10.185 6.6837-2.4808 39.384 8.6558 46.484 3.8503zm-37.864-22.101c-13.132-9.4544 49.414-2.3808 5 0l-2.5 1-2.5-1zm-15.154 20.903c-10.751-34.873-3.5495 20.288 0 0zm-35.276 1.21c13.672-28.532-14.632 4.7848 0 0zm5.7916-0.61331c-6.4564-5.5643-3.4605 6.3223 0 0zm40.826 0.81689c-4.3835-1.4324-0.4336 1.9249 0 0zm-632-4c-4.3834-1.4324-0.43359 1.9249 0 0zm576.81-2.8759c-3.1061-3.6266-1.8976 5.0354 0 0zm-650.81-5.1241c-4.3834-1.4324-0.43359 1.9249 0 0zm234.83-3.5669c3.4408-16.294-8.4079-8.8628 0 0zm-361.02-0.69098c-1.7366-6.9096-9.6126 5.6822 0 0zm-269.23-2.8715c-3.3621-4.4497-3.6338 5.246 0 0zm169.2-2.8373c-27.178-7.9329-36.576 5.2014 0 0zm26.901 0.66348c-1.0108-7.8005-22.42 2.4107 0 0zm54.669-0.0802c-12.975-8.3603-24.953 4.5176 0 0zm28.819-0.4295c-9.3134-6.5969-17.411 5.9884 0 0zm16.497 0.60572c-5.1807-7.7513-18.61 4.0447 0 0zm-193.86-1.6097c-3.5053-5.2925-2.3777 5.3997 0 0zm18.247 0.25893c-1.1721-14.44-9.7583 5.8365 0 0zm7.753-0.25893c-5.1823-5.4547-5.1823 5.4547 0 0zm83 0.5c-3.9669-3.5875-16.047 0.26507-5 1l5-1zm22.44-1.618c-1.4243-8.5017-9.9019 9.7907 0 0zm25.56 1.618c-7.9087-3.7111-7.9087 3.7111 0 0zm45 0c-2.5549-3.5874-2.5549 3.5874 0 0zm19.771-0.1875c-2.5209-5.4744-5.9057 5.4737 0 0zm12.229 0.1875c-2.5549-3.5874-2.5549 3.5874 0 0zm-199.5-1c-4.2157-3.7562-2.8621 2.7493 0 0zm-196.36-1.7375c-10.674-11.619-44.875 3.4632-43.845-9.4074-45.957 13.331 23.188 11.952 43.845 9.4075v-0.00004zm40.863-2.2382c-2.301-16.956-5.434 10.229 0 0zm31 2.4757c-6.1246-5.6252-5.0815 5.3485 0 0zm29.759 0.27758c1.0349-23.706-29.649 11.081 0 0zm23.491 0.49902c-6.0165-6.0547-12.887 4.5396 0 0zm9 0.0611c-5.5068-1.6231-0.99942 1.7502 0 0zm5.3929-0.8377c-7.813-4.797 1.9328 5.4459 0 0zm-129.64-0.5c-2.5549-3.5874-2.5549 3.5874 0 0zm8 0c-7.4392-3.7832-9.8226 3.7226 0 0zm12-0.19551c-10.568-3.1254-10.575 3.7445 0 0zm16 0.19551c-2.4663-3.5623-1.2094 3.6562 0 0zm14.5 0c-7.4392-3.7832-9.8226 3.7226 0 0zm342.89-3.5818c0.34902-12.103-8.7715 5.7203 0 0zm-257.23-3.38c-3.5892-5.1503-4.1829 8.1944 0 0zm63.015 1.0348c-7.3848-14.488-9.5999 6.9042 0 0zm82.188 1.2449c-4.3834-1.4324-0.43359 1.9249 0 0zm4 0c-4.3834-1.4324-0.43359 1.9249 0 0zm-322.44-1.5669c-5.4745-5.9635-1.9905 3.7599 0 0zm144.25 0.25c-3.9032-3.6531-3.9032 3.6531 0 0zm278 0c-2.5549-3.5874-2.5549 3.5874 0 0zm-10-5.9546c-19.343-8.4173-3.1387 13.523 0 0zm-384 2.9546c-3.9032-3.6531-3.9032 3.6531 0 0zm211.32-3.603c-7.2002-6.2564-6.1187 8.0459 0 0zm36.428 1.9727c5.6937-7.1177-19.666 2.4292 0 0zm12.25-1.4767c-6.5372-3.8427-4.3492 4.9811 0 0zm10.869 0.76498c-1.1557-8.9042-17.179 4.3946 0 0zm13.079 0.3954c-0.29983-7.7155-12.222 3.9919 0 0zm36.509 0.0157c-15.392-8.631-50.741 2.292-11.592 0.74435l7.9879-0.22198 3.6042-0.52237zm16.314-0.8816c-5.9789-4.6035-4.3013 4.9473 0 0zm20.229 0.23919c-4.4743-4.7319-5.1704 5.465 0 0zm13.744-0.1398c-7.0224-8.7137-10.116 7.5686 0 0zm-413.54-0.39c70.066-4.7001-72.779-7.2548-2.7231 0.14092l0.87811 0.96689 1.845-1.1078zm101.8 0.10781c8.0449-7.3697-10.046 0.81214 0 0zm42.441-0.5318c-3.7073-10.534-19.484 5.4997 0 0zm26.33-0.2807c-4.2549-4.796-3.238 5.0305 0 0zm13.979 0.5625c-5.8847-4.5933-5.8847 4.5933 0 0zm7.75 0.25c-2.4663-3.5623-1.2094 3.6562 0 0zm11.5-0.5c-3.8324-5.3812-3.8324 5.3812 0 0zm17 0.5c-2.5549-3.5874-2.5549 3.5874 0 0zm10 0.10699c-4.1704-6.4324-8.6947 4.7234 0 0zm37.983 0.14301c-5.1113-9.5653-15.853 6.0592 0 0zm9.0173-0.25c-2.5549-3.5874-2.5549 3.5874 0 0zm-159.76-1.7509c-4.2801-7.2373-11.441 4.5089 0 0zm-76.53-0.87179c-4.107-7.36-10.745 6.5713 0 0zm11.786 0.66698c-0.43654-6.5711-11.361 3.0345 0 0zm17.862-0.5443c-10.653-6.3824-1.2399 5.8417 0 0zm11.638 0.22224c-8.6237-15.346-3.6772 6.406 0 0zm14-0.22224c-3.2735-5.1581-4.7306 5.7207 0 0zm31.25 0.83772c-5.5068-1.6231-0.99942 1.7502 0 0zm-97.75-1.3377c-8.4391-3.7184-6.1589 3.7849 0 0zm1182.5-0.0741c25.021 6.5164 46.772-10.375 12.371-9.8598-16.666-8.4985-48.877 13.392-12.371 9.8598zm-800-2.4259c-2.4793-5.269-2.4793 5.269 0 0zm317-2.5c-4.8723-7.0766-0.70894 5.9336 0 0zm-690-0.91821c-0.0983-10.212-9.0491 4.7156 0 0zm-21-4.5818c-3.9034-8.6688-3.7689 8.6092 0 0zm704.98-0.25c-2.366-14.473-2.6697 10.29 0 0zm-745.98-0.75c-2.4793-5.269-2.4793 5.269 0 0zm33.29-0.5c32.133-7.211 75.285 1.182 112.08-1.7443 104.91-0.12069 209.85 0.93152 314.74-0.43902-10.607-22.475-61.856-1.1382-86.102-8.6732-78.022-0.30167-158.4 0.63747-235-1.1434-25.449 1.558-54.674-1.3818-80.941 1-26.47-2.5579-50.525 0.12407-77.543-0.97435-14.929-4.335-38.002 10.945-6.1308 7.7079 22.466 1.0495 32.856 1.5488 52.115 1.2664 1.7465-5.1752 6.6056 10.077 6.7898 3.0001zm31.981-3.6042c3.9597-2.1014 0.93456 2.2534 0 0zm15 0c3.9597-2.1014 0.93456 2.2534 0 0zm1158.7 2.5582c25.183 6.4684 33.708-8.8094 0.6885-9.204 40.723-7.7987-40.569-8.1447-12.466 9.25 3.7766 1.0665 7.9766 2.6823 11.778-0.046zm29.5 1.046c-3.8442-3.5852-2.5632 3.7039 0 0zm3.5 0c-2.5549-3.5874-2.5549 3.5874 0 0zm-523-4.2c-1.5935-5.362-1.3947 6.8255 0 0zm467-1.8c-2.5549-3.5874-2.5549 3.5874 0 0zm-3.5411-4.2401c3.5641-14.672-7.5113 12.531 0 0zm48.791-5.1766c-2.415-4.6608-3.2414 4.3691 0 0zm-51.479-5.3958c-3.3621-4.4497-3.6337 5.246 0 0zm-5.7708-0.1875c-3.8442-3.5852-2.5632 3.7039 0 0zm-56.71-3c-3.3785-6.9828-2.1982 7.0519 0 0zm106.35 0.5c-6.8814-4.7005 2.3706 5.3422 0 0zm-123.64-0.60841c4.8714-11.326-43.514-14.159-57.5-14.892-23.302-1.8162-61.587 1.8534-15.242 4.5635 24.152 1.3014 51.812 1.807 72.742 10.328zm-27-1.8916c-2.4139-6.9513-2.4139 6.9513 0 0zm-38.236-0.79363c-8.8394-4.7997-14.219 5.0206 0 0zm-232.52-0.45637c-0.59161-10.683-8.7495 7.7082 0 0zm244.75 0.25c-3.9032-3.6531-3.9032 3.6531 0 0zm-18-3.5c-2.4793-5.269-2.4793 5.269 0 0zm-31.967-5.5449c-22.026-10.009-59.323 5.4914-10.186 1.4223l5.8328-0.2393 4.3527-1.183zm-101.03 0.0449c-2.5549-3.5874-2.5549 3.5874 0 0zm-21-3c-2.5549-3.5874-2.5549 3.5874 0 0zm169-3c-3.9032-3.6531-3.9032 3.6531 0 0zm-480.25 50.294c9.9765-1.504 1.9514 1.5316 0 0z"/>
  </g>
  <metadata>
    <rdf:RDF>
      <cc:Work>
        <dc:format>image/svg+xml</dc:format>
        <dc:type rdf:resource="http://purl.org/dc/dcmitype/StillImage"/>
        <cc:license rdf:resource="http://creativecommons.org/licenses/publicdomain/"/>
        <dc:publisher>
          <cc:Agent rdf:about="http://openclipart.org/">
            <dc:title>Openclipart</dc:title>
          </cc:Agent>
        </dc:publisher>
        <dc:title>Gouge</dc:title>
        <dc:date>2010-04-14T21:36:23</dc:date>
        <dc:description>carpenter, clip art, clipart, gouge, tool, woodworker, woodworking, </dc:description>
        <dc:source>http://openclipart.org/detail/47047/gouge-by-cybergedeon</dc:source>
        <dc:creator>
          <cc:Agent>
            <dc:title>dominiquechappard</dc:title>
          </cc:Agent>
        </dc:creator>
        <dc:subject>
          <rdf:Bag>
            <rdf:li>carpenter</rdf:li>
            <rdf:li>clip art</rdf:li>
            <rdf:li>clipart</rdf:li>
            <rdf:li>gouge</rdf:li>
            <rdf:li>tool</rdf:li>
            <rdf:li>woodworker</rdf:li>
            <rdf:li>woodworking</rdf:li>
          </rdf:Bag>
        </dc:subject>
      </cc:Work>
      <cc:License rdf:about="http://creativecommons.org/licenses/publicdomain/">
        <cc:permits rdf:resource="http://creativecommons.org/ns#Reproduction"/>
        <cc:permits rdf:resource="http://creativecommons.org/ns#Distribution"/>
        <cc:permits rdf:resource="http://creativecommons.org/ns#DerivativeWorks"/>
      </cc:License>
    </rdf:RDF>
  </metadata>
</svg>
